<svg xmlns="http://www.w3.org/2000/svg" width="1436" height="615" style="cursor: move;">
    <g transform="translate(-119.75078213623806,-84.48361996467281) scale(1.2635652379059097)">
        <path class="link" marker-end="" d="M558,257.5, 738,237.5" style="stroke-width: 0.5; stroke-opacity: 1; stroke: rgb(80, 80, 80);"></path>
        <path class="link" marker-end="" d="M558,257.5, 738,277.5" style="stroke-width: 0.5; stroke-opacity: 1; stroke: rgb(80, 80, 80);"></path>
        <path class="link" marker-end="" d="M558,257.5, 738,317.5" style="stroke-width: 0.5; stroke-opacity: 1; stroke: rgb(80, 80, 80);"></path>
        <path class="link" marker-end="" d="M558,257.5, 738,357.5" style="stroke-width: 0.5; stroke-opacity: 1; stroke: rgb(80, 80, 80);"></path>
        <path class="link" marker-end="" d="M558,297.5, 738,237.5" style="stroke-width: 0.5; stroke-opacity: 1; stroke: rgb(80, 80, 80);"></path>
        <path class="link" marker-end="" d="M558,297.5, 738,277.5" style="stroke-width: 0.5; stroke-opacity: 1; stroke: rgb(80, 80, 80);"></path>
        <path class="link" marker-end="" d="M558,297.5, 738,317.5" style="stroke-width: 0.5; stroke-opacity: 1; stroke: rgb(80, 80, 80);"></path>
        <path class="link" marker-end="" d="M558,297.5, 738,357.5" style="stroke-width: 0.5; stroke-opacity: 1; stroke: rgb(80, 80, 80);"></path>
        <path class="link" marker-end="" d="M558,337.5, 738,237.5" style="stroke-width: 0.5; stroke-opacity: 1; stroke: rgb(80, 80, 80);"></path>
        <path class="link" marker-end="" d="M558,337.5, 738,277.5" style="stroke-width: 0.5; stroke-opacity: 1; stroke: rgb(80, 80, 80);"></path>
        <path class="link" marker-end="" d="M558,337.5, 738,317.5" style="stroke-width: 0.5; stroke-opacity: 1; stroke: rgb(80, 80, 80);"></path>
        <path class="link" marker-end="" d="M558,337.5, 738,357.5" style="stroke-width: 0.5; stroke-opacity: 1; stroke: rgb(80, 80, 80);"></path>
        <path class="link" marker-end="" d="M738,237.5, 918,277.5" style="stroke-width: 0.5; stroke-opacity: 1; stroke: rgb(80, 80, 80);"></path>
        <path class="link" marker-end="" d="M738,237.5, 918,317.5" style="stroke-width: 0.5; stroke-opacity: 1; stroke: rgb(80, 80, 80);"></path>
        <path class="link" marker-end="" d="M738,277.5, 918,277.5" style="stroke-width: 0.5; stroke-opacity: 1; stroke: rgb(80, 80, 80);"></path>
        <path class="link" marker-end="" d="M738,277.5, 918,317.5" style="stroke-width: 0.5; stroke-opacity: 1; stroke: rgb(80, 80, 80);"></path>
        <path class="link" marker-end="" d="M738,317.5, 918,277.5" style="stroke-width: 0.5; stroke-opacity: 1; stroke: rgb(80, 80, 80);"></path>
        <path class="link" marker-end="" d="M738,317.5, 918,317.5" style="stroke-width: 0.5; stroke-opacity: 1; stroke: rgb(80, 80, 80);"></path>
        <path class="link" marker-end="" d="M738,357.5, 918,277.5" style="stroke-width: 0.5; stroke-opacity: 1; stroke: rgb(80, 80, 80);"></path>
        <path class="link" marker-end="" d="M738,357.5, 918,317.5" style="stroke-width: 0.5; stroke-opacity: 1; stroke: rgb(80, 80, 80);"></path>
        <circle r="10.5" class="node" id="0_0" cx="558" cy="257.5" style="fill: rgb(255, 255, 255); stroke: rgb(51, 51, 51);"></circle>
        <circle r="10.5" class="node" id="0_1" cx="558" cy="297.5" style="fill: rgb(255, 255, 255); stroke: rgb(51, 51, 51);"></circle>
        <circle r="10.5" class="node" id="0_2" cx="558" cy="337.5" style="fill: rgb(255, 255, 255); stroke: rgb(51, 51, 51);"></circle>
        <text class="text" dy=".35em" x="523" y="397.5" style="font-size: 12px;">Input Layer ∈ ℝ³</text>
        <circle r="10.5" class="node" id="1_0" cx="738" cy="237.5" style="fill: rgb(255, 255, 255); stroke: rgb(51, 51, 51);"></circle>
        <circle r="10.5" class="node" id="1_1" cx="738" cy="277.5" style="fill: rgb(255, 255, 255); stroke: rgb(51, 51, 51);"></circle>
        <circle r="10.5" class="node" id="1_2" cx="738" cy="317.5" style="fill: rgb(255, 255, 255); stroke: rgb(51, 51, 51);"></circle>
        <circle r="10.5" class="node" id="1_3" cx="738" cy="357.5" style="fill: rgb(255, 255, 255); stroke: rgb(51, 51, 51);"></circle>
        <text class="text" dy=".35em" x="703" y="397.5" style="font-size: 12px;">Hidden Layer ∈ ℝ⁴</text>
        <circle r="10.5" class="node" id="2_0" cx="918" cy="277.5" style="fill: rgb(255, 255, 255); stroke: rgb(51, 51, 51);"></circle>
        <circle r="10.5" class="node" id="2_1" cx="918" cy="317.5" style="fill: rgb(255, 255, 255); stroke: rgb(51, 51, 51);"></circle>
        <text class="text" dy=".35em" x="883" y="397.5" style="font-size: 12px;">Output Layer ∈ ℝ²</text>
    </g>
    <defs>
        <marker id="arrow" viewBox="0 -5 10 10" markerWidth="7" markerHeight="7" orient="auto" refX="41.4">
            <path d="M0,-5L10,0L0,5" style="stroke: rgb(80, 80, 80); fill: none;"></path>
        </marker>
    </defs>
</svg>