<?xml version="1.0" encoding="utf-8" standalone="no"?>
<!DOCTYPE svg PUBLIC "-//W3C//DTD SVG 1.1//EN"
  "http://www.w3.org/Graphics/SVG/1.1/DTD/svg11.dtd">
<svg height="251.399844pt" version="1.1" viewBox="0 0 371.241719 251.399844" width="371.241719pt" xmlns="http://www.w3.org/2000/svg" xmlns:xlink="http://www.w3.org/1999/xlink">
 <metadata>
  <rdf:RDF xmlns:cc="http://creativecommons.org/ns#" xmlns:dc="http://purl.org/dc/elements/1.1/" xmlns:rdf="http://www.w3.org/1999/02/22-rdf-syntax-ns#">
   <cc:Work>
    <dc:type rdf:resource="http://purl.org/dc/dcmitype/StillImage"/>
    <dc:date>2021-05-07T21:00:54.156230</dc:date>
    <dc:format>image/svg+xml</dc:format>
    <dc:creator>
     <cc:Agent>
      <dc:title>Matplotlib v3.4.1, https://matplotlib.org/</dc:title>
     </cc:Agent>
    </dc:creator>
   </cc:Work>
  </rdf:RDF>
 </metadata>
 <defs>
  <style type="text/css">*{stroke-linecap:butt;stroke-linejoin:round;}</style>
 </defs>
 <g id="figure_1">
  <g id="patch_1">
   <path d="M 0 251.399844 
L 371.241719 251.399844 
L 371.241719 0 
L 0 0 
z
" style="fill:#ffffff;"/>
  </g>
  <g id="axes_1">
   <g id="patch_2">
    <path d="M 29.241719 224.64 
L 364.041719 224.64 
L 364.041719 7.2 
L 29.241719 7.2 
z
" style="fill:#eaeaf2;"/>
   </g>
   <g id="matplotlib.axis_1">
    <g id="xtick_1">
     <g id="line2d_1">
      <path clip-path="url(#pf503219cc8)" d="M 99.037977 224.64 
L 99.037977 7.2 
" style="fill:none;stroke:#ffffff;stroke-linecap:round;"/>
     </g>
     <g id="text_1">
      <!-- −2 -->
      <g style="fill:#262626;" transform="translate(92.767118 242.013594)scale(0.11 -0.11)">
       <defs>
        <path d="M 3381 1997 
L 356 1997 
L 356 2522 
L 3381 2522 
L 3381 1997 
z
" id="ArialMT-2212" transform="scale(0.015625)"/>
        <path d="M 3222 541 
L 3222 0 
L 194 0 
Q 188 203 259 391 
Q 375 700 629 1000 
Q 884 1300 1366 1694 
Q 2113 2306 2375 2664 
Q 2638 3022 2638 3341 
Q 2638 3675 2398 3904 
Q 2159 4134 1775 4134 
Q 1369 4134 1125 3890 
Q 881 3647 878 3216 
L 300 3275 
Q 359 3922 746 4261 
Q 1134 4600 1788 4600 
Q 2447 4600 2831 4234 
Q 3216 3869 3216 3328 
Q 3216 3053 3103 2787 
Q 2991 2522 2730 2228 
Q 2469 1934 1863 1422 
Q 1356 997 1212 845 
Q 1069 694 975 541 
L 3222 541 
z
" id="ArialMT-32" transform="scale(0.015625)"/>
       </defs>
       <use xlink:href="#ArialMT-2212"/>
       <use x="58.398438" xlink:href="#ArialMT-32"/>
      </g>
     </g>
    </g>
    <g id="xtick_2">
     <g id="line2d_2">
      <path clip-path="url(#pf503219cc8)" d="M 172.568365 224.64 
L 172.568365 7.2 
" style="fill:none;stroke:#ffffff;stroke-linecap:round;"/>
     </g>
     <g id="text_2">
      <!-- 0 -->
      <g style="fill:#262626;" transform="translate(169.50985 242.013594)scale(0.11 -0.11)">
       <defs>
        <path d="M 266 2259 
Q 266 3072 433 3567 
Q 600 4063 929 4331 
Q 1259 4600 1759 4600 
Q 2128 4600 2406 4451 
Q 2684 4303 2865 4023 
Q 3047 3744 3150 3342 
Q 3253 2941 3253 2259 
Q 3253 1453 3087 958 
Q 2922 463 2592 192 
Q 2263 -78 1759 -78 
Q 1097 -78 719 397 
Q 266 969 266 2259 
z
M 844 2259 
Q 844 1131 1108 757 
Q 1372 384 1759 384 
Q 2147 384 2411 759 
Q 2675 1134 2675 2259 
Q 2675 3391 2411 3762 
Q 2147 4134 1753 4134 
Q 1366 4134 1134 3806 
Q 844 3388 844 2259 
z
" id="ArialMT-30" transform="scale(0.015625)"/>
       </defs>
       <use xlink:href="#ArialMT-30"/>
      </g>
     </g>
    </g>
    <g id="xtick_3">
     <g id="line2d_3">
      <path clip-path="url(#pf503219cc8)" d="M 246.098753 224.64 
L 246.098753 7.2 
" style="fill:none;stroke:#ffffff;stroke-linecap:round;"/>
     </g>
     <g id="text_3">
      <!-- 2 -->
      <g style="fill:#262626;" transform="translate(243.040237 242.013594)scale(0.11 -0.11)">
       <use xlink:href="#ArialMT-32"/>
      </g>
     </g>
    </g>
    <g id="xtick_4">
     <g id="line2d_4">
      <path clip-path="url(#pf503219cc8)" d="M 319.629141 224.64 
L 319.629141 7.2 
" style="fill:none;stroke:#ffffff;stroke-linecap:round;"/>
     </g>
     <g id="text_4">
      <!-- 4 -->
      <g style="fill:#262626;" transform="translate(316.570625 242.013594)scale(0.11 -0.11)">
       <defs>
        <path d="M 2069 0 
L 2069 1097 
L 81 1097 
L 81 1613 
L 2172 4581 
L 2631 4581 
L 2631 1613 
L 3250 1613 
L 3250 1097 
L 2631 1097 
L 2631 0 
L 2069 0 
z
M 2069 1613 
L 2069 3678 
L 634 1613 
L 2069 1613 
z
" id="ArialMT-34" transform="scale(0.015625)"/>
       </defs>
       <use xlink:href="#ArialMT-34"/>
      </g>
     </g>
    </g>
   </g>
   <g id="matplotlib.axis_2">
    <g id="ytick_1">
     <g id="line2d_5">
      <path clip-path="url(#pf503219cc8)" d="M 29.241719 182.101904 
L 364.041719 182.101904 
" style="fill:none;stroke:#ffffff;stroke-linecap:round;"/>
     </g>
     <g id="text_5">
      <!-- −2 -->
      <g style="fill:#262626;" transform="translate(7.2 186.038701)scale(0.11 -0.11)">
       <use xlink:href="#ArialMT-2212"/>
       <use x="58.398438" xlink:href="#ArialMT-32"/>
      </g>
     </g>
    </g>
    <g id="ytick_2">
     <g id="line2d_6">
      <path clip-path="url(#pf503219cc8)" d="M 29.241719 134.501302 
L 364.041719 134.501302 
" style="fill:none;stroke:#ffffff;stroke-linecap:round;"/>
     </g>
     <g id="text_6">
      <!-- 0 -->
      <g style="fill:#262626;" transform="translate(13.624688 138.438099)scale(0.11 -0.11)">
       <use xlink:href="#ArialMT-30"/>
      </g>
     </g>
    </g>
    <g id="ytick_3">
     <g id="line2d_7">
      <path clip-path="url(#pf503219cc8)" d="M 29.241719 86.9007 
L 364.041719 86.9007 
" style="fill:none;stroke:#ffffff;stroke-linecap:round;"/>
     </g>
     <g id="text_7">
      <!-- 2 -->
      <g style="fill:#262626;" transform="translate(13.624688 90.837497)scale(0.11 -0.11)">
       <use xlink:href="#ArialMT-32"/>
      </g>
     </g>
    </g>
    <g id="ytick_4">
     <g id="line2d_8">
      <path clip-path="url(#pf503219cc8)" d="M 29.241719 39.300098 
L 364.041719 39.300098 
" style="fill:none;stroke:#ffffff;stroke-linecap:round;"/>
     </g>
     <g id="text_8">
      <!-- 4 -->
      <g style="fill:#262626;" transform="translate(13.624688 43.236895)scale(0.11 -0.11)">
       <use xlink:href="#ArialMT-34"/>
      </g>
     </g>
    </g>
   </g>
   <g id="PathCollection_1">
    <defs>
     <path d="M 0 3 
C 0.795609 3 1.55874 2.683901 2.12132 2.12132 
C 2.683901 1.55874 3 0.795609 3 0 
C 3 -0.795609 2.683901 -1.55874 2.12132 -2.12132 
C 1.55874 -2.683901 0.795609 -3 0 -3 
C -0.795609 -3 -1.55874 -2.683901 -2.12132 -2.12132 
C -2.683901 -1.55874 -3 -0.795609 -3 0 
C -3 0.795609 -2.683901 1.55874 -2.12132 2.12132 
C -1.55874 2.683901 -0.795609 3 0 3 
z
" id="m8414be204d" style="stroke:#4c72b0;"/>
    </defs>
    <g clip-path="url(#pf503219cc8)">
     <use style="fill:#4c72b0;stroke:#4c72b0;" x="262.332081" xlink:href="#m8414be204d" y="131.462734"/>
     <use style="fill:#4c72b0;stroke:#4c72b0;" x="245.733603" xlink:href="#m8414be204d" y="116.92848"/>
     <use style="fill:#4c72b0;stroke:#4c72b0;" x="238.801685" xlink:href="#m8414be204d" y="104.397465"/>
     <use style="fill:#4c72b0;stroke:#4c72b0;" x="229.643281" xlink:href="#m8414be204d" y="87.859764"/>
     <use style="fill:#4c72b0;stroke:#4c72b0;" x="201.480839" xlink:href="#m8414be204d" y="78.185968"/>
     <use style="fill:#4c72b0;stroke:#4c72b0;" x="182.270125" xlink:href="#m8414be204d" y="75.721858"/>
     <use style="fill:#4c72b0;stroke:#4c72b0;" x="159.596669" xlink:href="#m8414be204d" y="88.47551"/>
     <use style="fill:#4c72b0;stroke:#4c72b0;" x="137.80618" xlink:href="#m8414be204d" y="88.655845"/>
     <use style="fill:#4c72b0;stroke:#4c72b0;" x="108.738343" xlink:href="#m8414be204d" y="103.915396"/>
     <use style="fill:#4c72b0;stroke:#4c72b0;" x="107.416712" xlink:href="#m8414be204d" y="115.676974"/>
     <use style="fill:#4c72b0;stroke:#4c72b0;" x="117.726867" xlink:href="#m8414be204d" y="134.137028"/>
     <use style="fill:#4c72b0;stroke:#4c72b0;" x="109.786919" xlink:href="#m8414be204d" y="155.442892"/>
     <use style="fill:#4c72b0;stroke:#4c72b0;" x="130.125139" xlink:href="#m8414be204d" y="159.900489"/>
     <use style="fill:#4c72b0;stroke:#4c72b0;" x="145.31613" xlink:href="#m8414be204d" y="172.171764"/>
     <use style="fill:#4c72b0;stroke:#4c72b0;" x="175.435949" xlink:href="#m8414be204d" y="171.90392"/>
     <use style="fill:#4c72b0;stroke:#4c72b0;" x="202.000711" xlink:href="#m8414be204d" y="180.36465"/>
     <use style="fill:#4c72b0;stroke:#4c72b0;" x="219.760318" xlink:href="#m8414be204d" y="165.382724"/>
     <use style="fill:#4c72b0;stroke:#4c72b0;" x="241.81419" xlink:href="#m8414be204d" y="154.9481"/>
     <use style="fill:#4c72b0;stroke:#4c72b0;" x="248.559563" xlink:href="#m8414be204d" y="141.63321"/>
     <use style="fill:#4c72b0;stroke:#4c72b0;" x="263.940426" xlink:href="#m8414be204d" y="128.322556"/>
    </g>
   </g>
   <g id="PathCollection_2">
    <defs>
     <path d="M -3 3 
L 3 -3 
M -3 -3 
L 3 3 
" id="m9e4d30268d" style="stroke:#dd8452;stroke-width:1.5;"/>
    </defs>
    <g clip-path="url(#pf503219cc8)">
     <use style="fill:#dd8452;stroke:#dd8452;stroke-width:1.5;" x="345.886972" xlink:href="#m9e4d30268d" y="130.526494"/>
     <use style="fill:#dd8452;stroke:#dd8452;stroke-width:1.5;" x="329.317424" xlink:href="#m9e4d30268d" y="90.570774"/>
     <use style="fill:#dd8452;stroke:#dd8452;stroke-width:1.5;" x="316.657257" xlink:href="#m9e4d30268d" y="70.874791"/>
     <use style="fill:#dd8452;stroke:#dd8452;stroke-width:1.5;" x="258.399061" xlink:href="#m9e4d30268d" y="39.403239"/>
     <use style="fill:#dd8452;stroke:#dd8452;stroke-width:1.5;" x="217.987003" xlink:href="#m9e4d30268d" y="34.266833"/>
     <use style="fill:#dd8452;stroke:#dd8452;stroke-width:1.5;" x="185.236825" xlink:href="#m9e4d30268d" y="17.083636"/>
     <use style="fill:#dd8452;stroke:#dd8452;stroke-width:1.5;" x="118.639161" xlink:href="#m9e4d30268d" y="35.249503"/>
     <use style="fill:#dd8452;stroke:#dd8452;stroke-width:1.5;" x="108.901457" xlink:href="#m9e4d30268d" y="41.308038"/>
     <use style="fill:#dd8452;stroke:#dd8452;stroke-width:1.5;" x="73.599798" xlink:href="#m9e4d30268d" y="87.873804"/>
     <use style="fill:#dd8452;stroke:#dd8452;stroke-width:1.5;" x="44.459901" xlink:href="#m9e4d30268d" y="106.097033"/>
     <use style="fill:#dd8452;stroke:#dd8452;stroke-width:1.5;" x="51.105122" xlink:href="#m9e4d30268d" y="138.239056"/>
     <use style="fill:#dd8452;stroke:#dd8452;stroke-width:1.5;" x="55.393466" xlink:href="#m9e4d30268d" y="171.461861"/>
     <use style="fill:#dd8452;stroke:#dd8452;stroke-width:1.5;" x="92.658334" xlink:href="#m9e4d30268d" y="189.939636"/>
     <use style="fill:#dd8452;stroke:#dd8452;stroke-width:1.5;" x="122.373483" xlink:href="#m9e4d30268d" y="200.467254"/>
     <use style="fill:#dd8452;stroke:#dd8452;stroke-width:1.5;" x="172.664991" xlink:href="#m9e4d30268d" y="214.756364"/>
     <use style="fill:#dd8452;stroke:#dd8452;stroke-width:1.5;" x="225.89348" xlink:href="#m9e4d30268d" y="210.782307"/>
     <use style="fill:#dd8452;stroke:#dd8452;stroke-width:1.5;" x="281.046506" xlink:href="#m9e4d30268d" y="203.561074"/>
     <use style="fill:#dd8452;stroke:#dd8452;stroke-width:1.5;" x="305.42735" xlink:href="#m9e4d30268d" y="192.965957"/>
     <use style="fill:#dd8452;stroke:#dd8452;stroke-width:1.5;" x="348.403916" xlink:href="#m9e4d30268d" y="148.369266"/>
     <use style="fill:#dd8452;stroke:#dd8452;stroke-width:1.5;" x="348.823537" xlink:href="#m9e4d30268d" y="112.175294"/>
    </g>
   </g>
   <g id="patch_3">
    <path d="M 29.241719 224.64 
L 29.241719 7.2 
" style="fill:none;stroke:#ffffff;stroke-linecap:square;stroke-linejoin:miter;stroke-width:1.25;"/>
   </g>
   <g id="patch_4">
    <path d="M 364.041719 224.64 
L 364.041719 7.2 
" style="fill:none;stroke:#ffffff;stroke-linecap:square;stroke-linejoin:miter;stroke-width:1.25;"/>
   </g>
   <g id="patch_5">
    <path d="M 29.241719 224.64 
L 364.041719 224.64 
" style="fill:none;stroke:#ffffff;stroke-linecap:square;stroke-linejoin:miter;stroke-width:1.25;"/>
   </g>
   <g id="patch_6">
    <path d="M 29.241719 7.2 
L 364.041719 7.2 
" style="fill:none;stroke:#ffffff;stroke-linecap:square;stroke-linejoin:miter;stroke-width:1.25;"/>
   </g>
   <g id="legend_1">
    <g id="patch_7">
     <path d="M 279.556563 47.248594 
L 356.341719 47.248594 
Q 358.541719 47.248594 358.541719 45.048594 
L 358.541719 14.9 
Q 358.541719 12.7 356.341719 12.7 
L 279.556563 12.7 
Q 277.356563 12.7 277.356563 14.9 
L 277.356563 45.048594 
Q 277.356563 47.248594 279.556563 47.248594 
z
" style="fill:#eaeaf2;opacity:0.8;stroke:#cccccc;stroke-linejoin:miter;"/>
    </g>
    <g id="PathCollection_3">
     <g>
      <use style="fill:#4c72b0;stroke:#4c72b0;" x="292.756563" xlink:href="#m8414be204d" y="22.086094"/>
     </g>
    </g>
    <g id="text_9">
     <!-- positive -->
     <g style="fill:#262626;" transform="translate(312.556563 24.973594)scale(0.11 -0.11)">
      <defs>
       <path d="M 422 -1272 
L 422 3319 
L 934 3319 
L 934 2888 
Q 1116 3141 1344 3267 
Q 1572 3394 1897 3394 
Q 2322 3394 2647 3175 
Q 2972 2956 3137 2557 
Q 3303 2159 3303 1684 
Q 3303 1175 3120 767 
Q 2938 359 2589 142 
Q 2241 -75 1856 -75 
Q 1575 -75 1351 44 
Q 1128 163 984 344 
L 984 -1272 
L 422 -1272 
z
M 931 1641 
Q 931 1000 1190 694 
Q 1450 388 1819 388 
Q 2194 388 2461 705 
Q 2728 1022 2728 1688 
Q 2728 2322 2467 2637 
Q 2206 2953 1844 2953 
Q 1484 2953 1207 2617 
Q 931 2281 931 1641 
z
" id="ArialMT-70" transform="scale(0.015625)"/>
       <path d="M 213 1659 
Q 213 2581 725 3025 
Q 1153 3394 1769 3394 
Q 2453 3394 2887 2945 
Q 3322 2497 3322 1706 
Q 3322 1066 3130 698 
Q 2938 331 2570 128 
Q 2203 -75 1769 -75 
Q 1072 -75 642 372 
Q 213 819 213 1659 
z
M 791 1659 
Q 791 1022 1069 705 
Q 1347 388 1769 388 
Q 2188 388 2466 706 
Q 2744 1025 2744 1678 
Q 2744 2294 2464 2611 
Q 2184 2928 1769 2928 
Q 1347 2928 1069 2612 
Q 791 2297 791 1659 
z
" id="ArialMT-6f" transform="scale(0.015625)"/>
       <path d="M 197 991 
L 753 1078 
Q 800 744 1014 566 
Q 1228 388 1613 388 
Q 2000 388 2187 545 
Q 2375 703 2375 916 
Q 2375 1106 2209 1216 
Q 2094 1291 1634 1406 
Q 1016 1563 777 1677 
Q 538 1791 414 1992 
Q 291 2194 291 2438 
Q 291 2659 392 2848 
Q 494 3038 669 3163 
Q 800 3259 1026 3326 
Q 1253 3394 1513 3394 
Q 1903 3394 2198 3281 
Q 2494 3169 2634 2976 
Q 2775 2784 2828 2463 
L 2278 2388 
Q 2241 2644 2061 2787 
Q 1881 2931 1553 2931 
Q 1166 2931 1000 2803 
Q 834 2675 834 2503 
Q 834 2394 903 2306 
Q 972 2216 1119 2156 
Q 1203 2125 1616 2013 
Q 2213 1853 2448 1751 
Q 2684 1650 2818 1456 
Q 2953 1263 2953 975 
Q 2953 694 2789 445 
Q 2625 197 2315 61 
Q 2006 -75 1616 -75 
Q 969 -75 630 194 
Q 291 463 197 991 
z
" id="ArialMT-73" transform="scale(0.015625)"/>
       <path d="M 425 3934 
L 425 4581 
L 988 4581 
L 988 3934 
L 425 3934 
z
M 425 0 
L 425 3319 
L 988 3319 
L 988 0 
L 425 0 
z
" id="ArialMT-69" transform="scale(0.015625)"/>
       <path d="M 1650 503 
L 1731 6 
Q 1494 -44 1306 -44 
Q 1000 -44 831 53 
Q 663 150 594 308 
Q 525 466 525 972 
L 525 2881 
L 113 2881 
L 113 3319 
L 525 3319 
L 525 4141 
L 1084 4478 
L 1084 3319 
L 1650 3319 
L 1650 2881 
L 1084 2881 
L 1084 941 
Q 1084 700 1114 631 
Q 1144 563 1211 522 
Q 1278 481 1403 481 
Q 1497 481 1650 503 
z
" id="ArialMT-74" transform="scale(0.015625)"/>
       <path d="M 1344 0 
L 81 3319 
L 675 3319 
L 1388 1331 
Q 1503 1009 1600 663 
Q 1675 925 1809 1294 
L 2547 3319 
L 3125 3319 
L 1869 0 
L 1344 0 
z
" id="ArialMT-76" transform="scale(0.015625)"/>
       <path d="M 2694 1069 
L 3275 997 
Q 3138 488 2766 206 
Q 2394 -75 1816 -75 
Q 1088 -75 661 373 
Q 234 822 234 1631 
Q 234 2469 665 2931 
Q 1097 3394 1784 3394 
Q 2450 3394 2872 2941 
Q 3294 2488 3294 1666 
Q 3294 1616 3291 1516 
L 816 1516 
Q 847 969 1125 678 
Q 1403 388 1819 388 
Q 2128 388 2347 550 
Q 2566 713 2694 1069 
z
M 847 1978 
L 2700 1978 
Q 2663 2397 2488 2606 
Q 2219 2931 1791 2931 
Q 1403 2931 1139 2672 
Q 875 2413 847 1978 
z
" id="ArialMT-65" transform="scale(0.015625)"/>
      </defs>
      <use xlink:href="#ArialMT-70"/>
      <use x="55.615234" xlink:href="#ArialMT-6f"/>
      <use x="111.230469" xlink:href="#ArialMT-73"/>
      <use x="161.230469" xlink:href="#ArialMT-69"/>
      <use x="183.447266" xlink:href="#ArialMT-74"/>
      <use x="211.230469" xlink:href="#ArialMT-69"/>
      <use x="233.447266" xlink:href="#ArialMT-76"/>
      <use x="283.447266" xlink:href="#ArialMT-65"/>
     </g>
    </g>
    <g id="PathCollection_4">
     <g>
      <use style="fill:#dd8452;stroke:#dd8452;stroke-width:1.5;" x="292.756563" xlink:href="#m9e4d30268d" y="37.645937"/>
     </g>
    </g>
    <g id="text_10">
     <!-- negative -->
     <g style="fill:#262626;" transform="translate(312.556563 40.533437)scale(0.11 -0.11)">
      <defs>
       <path d="M 422 0 
L 422 3319 
L 928 3319 
L 928 2847 
Q 1294 3394 1984 3394 
Q 2284 3394 2536 3286 
Q 2788 3178 2913 3003 
Q 3038 2828 3088 2588 
Q 3119 2431 3119 2041 
L 3119 0 
L 2556 0 
L 2556 2019 
Q 2556 2363 2490 2533 
Q 2425 2703 2258 2804 
Q 2091 2906 1866 2906 
Q 1506 2906 1245 2678 
Q 984 2450 984 1813 
L 984 0 
L 422 0 
z
" id="ArialMT-6e" transform="scale(0.015625)"/>
       <path d="M 319 -275 
L 866 -356 
Q 900 -609 1056 -725 
Q 1266 -881 1628 -881 
Q 2019 -881 2231 -725 
Q 2444 -569 2519 -288 
Q 2563 -116 2559 434 
Q 2191 0 1641 0 
Q 956 0 581 494 
Q 206 988 206 1678 
Q 206 2153 378 2554 
Q 550 2956 876 3175 
Q 1203 3394 1644 3394 
Q 2231 3394 2613 2919 
L 2613 3319 
L 3131 3319 
L 3131 450 
Q 3131 -325 2973 -648 
Q 2816 -972 2473 -1159 
Q 2131 -1347 1631 -1347 
Q 1038 -1347 672 -1080 
Q 306 -813 319 -275 
z
M 784 1719 
Q 784 1066 1043 766 
Q 1303 466 1694 466 
Q 2081 466 2343 764 
Q 2606 1063 2606 1700 
Q 2606 2309 2336 2618 
Q 2066 2928 1684 2928 
Q 1309 2928 1046 2623 
Q 784 2319 784 1719 
z
" id="ArialMT-67" transform="scale(0.015625)"/>
       <path d="M 2588 409 
Q 2275 144 1986 34 
Q 1697 -75 1366 -75 
Q 819 -75 525 192 
Q 231 459 231 875 
Q 231 1119 342 1320 
Q 453 1522 633 1644 
Q 813 1766 1038 1828 
Q 1203 1872 1538 1913 
Q 2219 1994 2541 2106 
Q 2544 2222 2544 2253 
Q 2544 2597 2384 2738 
Q 2169 2928 1744 2928 
Q 1347 2928 1158 2789 
Q 969 2650 878 2297 
L 328 2372 
Q 403 2725 575 2942 
Q 747 3159 1072 3276 
Q 1397 3394 1825 3394 
Q 2250 3394 2515 3294 
Q 2781 3194 2906 3042 
Q 3031 2891 3081 2659 
Q 3109 2516 3109 2141 
L 3109 1391 
Q 3109 606 3145 398 
Q 3181 191 3288 0 
L 2700 0 
Q 2613 175 2588 409 
z
M 2541 1666 
Q 2234 1541 1622 1453 
Q 1275 1403 1131 1340 
Q 988 1278 909 1158 
Q 831 1038 831 891 
Q 831 666 1001 516 
Q 1172 366 1500 366 
Q 1825 366 2078 508 
Q 2331 650 2450 897 
Q 2541 1088 2541 1459 
L 2541 1666 
z
" id="ArialMT-61" transform="scale(0.015625)"/>
      </defs>
      <use xlink:href="#ArialMT-6e"/>
      <use x="55.615234" xlink:href="#ArialMT-65"/>
      <use x="111.230469" xlink:href="#ArialMT-67"/>
      <use x="166.845703" xlink:href="#ArialMT-61"/>
      <use x="222.460938" xlink:href="#ArialMT-74"/>
      <use x="250.244141" xlink:href="#ArialMT-69"/>
      <use x="272.460938" xlink:href="#ArialMT-76"/>
      <use x="322.460938" xlink:href="#ArialMT-65"/>
     </g>
    </g>
   </g>
  </g>
 </g>
 <defs>
  <clipPath id="pf503219cc8">
   <rect height="217.44" width="334.8" x="29.241719" y="7.2"/>
  </clipPath>
 </defs>
</svg>
